<?xml version="1.0" encoding="UTF-8"?>
<svg xmlns="http://www.w3.org/2000/svg" width="960" height="640" viewBox="0 0 960 640" role="img">
  <defs>
    <linearGradient id="steel" x1="0" x2="1">
      <stop offset="0" stop-color="#eef3f1"/>
      <stop offset="1" stop-color="#c6d2cf"/>
    </linearGradient>
    <linearGradient id="board" x1="0" x2="1" y1="0" y2="1">
      <stop offset="0" stop-color="#f7fbf8"/>
      <stop offset="1" stop-color="#dbe9e1"/>
    </linearGradient>
    <filter id="shadow" x="-20%" y="-20%" width="140%" height="140%">
      <feDropShadow dx="0" dy="8" stdDeviation="8" flood-color="#0e2a22" flood-opacity=".18"/>
    </filter>
  </defs>
  
  <rect width="960" height="640" fill="#f4f7f2"/>
  <rect x="70" y="70" width="820" height="500" rx="24" fill="url(#board)" stroke="#b7c8c0" stroke-width="4" filter="url(#shadow)"/>
  <ellipse cx="170" cy="160" rx="54" ry="38" fill="none" stroke="#69a95b" stroke-width="18"/><ellipse cx="170" cy="160" rx="28" ry="18" fill="none" stroke="#d6d2b9" stroke-width="5"/><ellipse cx="315" cy="160" rx="54" ry="38" fill="none" stroke="#f2f0db" stroke-width="18"/><ellipse cx="315" cy="160" rx="28" ry="18" fill="none" stroke="#d6d2b9" stroke-width="5"/><ellipse cx="460" cy="160" rx="54" ry="38" fill="none" stroke="#69a95b" stroke-width="18"/><ellipse cx="460" cy="160" rx="28" ry="18" fill="none" stroke="#d6d2b9" stroke-width="5"/><ellipse cx="605" cy="160" rx="54" ry="38" fill="none" stroke="#f2f0db" stroke-width="18"/><ellipse cx="605" cy="160" rx="28" ry="18" fill="none" stroke="#d6d2b9" stroke-width="5"/><ellipse cx="750" cy="160" rx="54" ry="38" fill="none" stroke="#69a95b" stroke-width="18"/><ellipse cx="750" cy="160" rx="28" ry="18" fill="none" stroke="#d6d2b9" stroke-width="5"/><ellipse cx="170" cy="280" rx="54" ry="38" fill="none" stroke="#f2f0db" stroke-width="18"/><ellipse cx="170" cy="280" rx="28" ry="18" fill="none" stroke="#d6d2b9" stroke-width="5"/><ellipse cx="315" cy="280" rx="54" ry="38" fill="none" stroke="#69a95b" stroke-width="18"/><ellipse cx="315" cy="280" rx="28" ry="18" fill="none" stroke="#d6d2b9" stroke-width="5"/><ellipse cx="460" cy="280" rx="54" ry="38" fill="none" stroke="#f2f0db" stroke-width="18"/><ellipse cx="460" cy="280" rx="28" ry="18" fill="none" stroke="#d6d2b9" stroke-width="5"/><ellipse cx="605" cy="280" rx="54" ry="38" fill="none" stroke="#69a95b" stroke-width="18"/><ellipse cx="605" cy="280" rx="28" ry="18" fill="none" stroke="#d6d2b9" stroke-width="5"/><ellipse cx="750" cy="280" rx="54" ry="38" fill="none" stroke="#f2f0db" stroke-width="18"/><ellipse cx="750" cy="280" rx="28" ry="18" fill="none" stroke="#d6d2b9" stroke-width="5"/><ellipse cx="170" cy="400" rx="54" ry="38" fill="none" stroke="#69a95b" stroke-width="18"/><ellipse cx="170" cy="400" rx="28" ry="18" fill="none" stroke="#d6d2b9" stroke-width="5"/><ellipse cx="315" cy="400" rx="54" ry="38" fill="none" stroke="#f2f0db" stroke-width="18"/><ellipse cx="315" cy="400" rx="28" ry="18" fill="none" stroke="#d6d2b9" stroke-width="5"/><ellipse cx="460" cy="400" rx="54" ry="38" fill="none" stroke="#69a95b" stroke-width="18"/><ellipse cx="460" cy="400" rx="28" ry="18" fill="none" stroke="#d6d2b9" stroke-width="5"/>

</svg>
